<svg id="Layer_1" data-name="Layer 1" xmlns="http://www.w3.org/2000/svg" viewBox="0 0 129.05 27.52"><path d="M28.06,12.18V12a8.66,8.66,0,0,0-8.6-8.6h-.17V1.15h.39A10.67,10.67,0,0,1,27.2,4.37a10.78,10.78,0,0,1,2.31,3.45A10.27,10.27,0,0,1,30.33,12v.17Z"/><path d="M24.16,12.18V12a4.71,4.71,0,0,0-4.7-4.7h-.17V5h.21a7,7,0,0,1,6.94,7v.17Z"/><path d="M20.46,12.17A1.17,1.17,0,0,1,19.29,11h0V8.92h.2A3.09,3.09,0,0,1,22.55,12v.17Z"/><path d="M42.82,8.3a2.09,2.09,0,0,1,1.37,1.86,1.65,1.65,0,0,1-.34,1,1.09,1.09,0,0,1-.9.43,1.71,1.71,0,0,1-.69-.12,2.25,2.25,0,0,1-.51-.31,2.63,2.63,0,0,0-.49-.33,3.31,3.31,0,0,0-.78-.24,4.51,4.51,0,0,0-.83-.11,4,4,0,0,0-3.11,1.23,4.57,4.57,0,0,0-1.12,3.21,4.57,4.57,0,0,0,1.13,3.16,3.77,3.77,0,0,0,2.91,1.25A4.54,4.54,0,0,0,41.39,19l.44-.28a3.67,3.67,0,0,1,.51-.31,1.44,1.44,0,0,1,.58-.1,1.36,1.36,0,0,1,1,.42,1.59,1.59,0,0,1,.38,1.09A1.53,1.53,0,0,1,43.61,21a5.76,5.76,0,0,1-2,.89,9.83,9.83,0,0,1-2.59.33,6.74,6.74,0,0,1-3.58-1,6.47,6.47,0,0,1-2.39-2.63,8.26,8.26,0,0,1-.84-3.74,8,8,0,0,1,.88-3.8A6.61,6.61,0,0,1,35.6,8.53a7,7,0,0,1,3.6-.93A8,8,0,0,1,42.82,8.3Z"/><path d="M59.22,8a1.58,1.58,0,0,1,.45,1.17V20.38a1.58,1.58,0,0,1-.45,1.15,1.5,1.5,0,0,1-1.13.47A1.52,1.52,0,0,1,57,21.55a1.68,1.68,0,0,1-.46-1.14,5.69,5.69,0,0,1-4.15,1.85,6,6,0,0,1-3.3-.94,6.56,6.56,0,0,1-2.34-2.6,8.16,8.16,0,0,1-.86-3.78,8.35,8.35,0,0,1,.85-3.79A6.48,6.48,0,0,1,49,8.53a5.94,5.94,0,0,1,3.24-.93,6.12,6.12,0,0,1,2.38.46A6.34,6.34,0,0,1,56.5,9.23v0A1.58,1.58,0,0,1,57,8.06a1.51,1.51,0,0,1,1.14-.46A1.55,1.55,0,0,1,59.22,8ZM55.55,18.1a4.68,4.68,0,0,0,1.08-3.16,4.72,4.72,0,0,0-1.08-3.17,3.69,3.69,0,0,0-5.57,0,4.68,4.68,0,0,0-1.09,3.17A4.72,4.72,0,0,0,50,18.1a3.75,3.75,0,0,0,5.59,0Z"/><path d="M62.05,19a1.51,1.51,0,0,1,1.45-1.4,1.5,1.5,0,0,1,1.06.5,5.67,5.67,0,0,0,1.65,1.22,5,5,0,0,0,2.08.39c1.37,0,2.06-.57,2.06-1.56a1.28,1.28,0,0,0-.7-1.16,10.1,10.1,0,0,0-2.18-.79,17.05,17.05,0,0,1-2.5-.85,4.38,4.38,0,0,1-1.66-1.28,3.52,3.52,0,0,1-.71-2.31,3.54,3.54,0,0,1,.73-2.21,4.85,4.85,0,0,1,1.9-1.45,6.25,6.25,0,0,1,2.5-.51,7.58,7.58,0,0,1,2.7.5,4.69,4.69,0,0,1,2.11,1.48,1.46,1.46,0,0,1,.34.95,1.2,1.2,0,0,1-.5,1,1.4,1.4,0,0,1-1.8-.08,3.36,3.36,0,0,0-1.22-.92,4.08,4.08,0,0,0-1.71-.34c-1.34,0-2,.48-2,1.45a1.27,1.27,0,0,0,.37.94,2.63,2.63,0,0,0,.94.55c.38.13.91.3,1.6.49a17.51,17.51,0,0,1,2.38.82,4.09,4.09,0,0,1,1.61,1.29A3.72,3.72,0,0,1,73.2,18a3.52,3.52,0,0,1-.77,2.26,4.91,4.91,0,0,1-2,1.47,6.5,6.5,0,0,1-2.48.5,8.84,8.84,0,0,1-3.24-.58,5.33,5.33,0,0,1-2.46-1.88A1.26,1.26,0,0,1,62.05,19Z"/><path d="M83.33,19.37a1.39,1.39,0,0,1,.31.93,1.42,1.42,0,0,1-.78,1.21A3.31,3.31,0,0,1,81.1,22a5.19,5.19,0,0,1-2.76-.7c-.75-.47-1.12-1.46-1.12-3V11H76a1.46,1.46,0,0,1-1.06-.42,1.45,1.45,0,0,1-.42-1.06,1.39,1.39,0,0,1,.42-1A1.5,1.5,0,0,1,76,8.12h1.22V6.43a1.57,1.57,0,0,1,.46-1.15,1.59,1.59,0,0,1,1.15-.46,1.52,1.52,0,0,1,1.11.46,1.6,1.6,0,0,1,.45,1.15V8.12h1.87a1.44,1.44,0,0,1,1.06.43,1.42,1.42,0,0,1,.42,1,1.36,1.36,0,0,1-.42,1,1.46,1.46,0,0,1-1.06.41H80.39v7.16a1,1,0,0,0,.29.81,1.19,1.19,0,0,0,.79.25,2.36,2.36,0,0,0,.58-.11,1.52,1.52,0,0,1,.61-.13A.88.88,0,0,1,83.33,19.37Z"/><path d="M86.87,21.56a1.61,1.61,0,0,1-.41-1.18v-.45a1.59,1.59,0,0,1,.41-1.17,1.63,1.63,0,0,1,1.18-.41h.34a1.63,1.63,0,0,1,1.18.41A1.59,1.59,0,0,1,90,19.93v.45A1.43,1.43,0,0,1,88.39,22h-.34A1.63,1.63,0,0,1,86.87,21.56Z"/><path d="M105.8,8a1.58,1.58,0,0,1,.45,1.17V20.38a1.58,1.58,0,0,1-.45,1.15,1.62,1.62,0,0,1-2.26,0,1.68,1.68,0,0,1-.46-1.14,5.69,5.69,0,0,1-4.15,1.85,6,6,0,0,1-3.3-.94,6.49,6.49,0,0,1-2.34-2.6,8.16,8.16,0,0,1-.86-3.78,8.35,8.35,0,0,1,.85-3.79,6.48,6.48,0,0,1,2.31-2.62,5.94,5.94,0,0,1,3.24-.93,6.12,6.12,0,0,1,2.38.46,6.34,6.34,0,0,1,1.87,1.17v0a1.58,1.58,0,0,1,.45-1.15,1.51,1.51,0,0,1,1.14-.46A1.57,1.57,0,0,1,105.8,8ZM102.13,18.1a4.68,4.68,0,0,0,1.08-3.16,4.72,4.72,0,0,0-1.08-3.17,3.5,3.5,0,0,0-2.8-1.27,3.46,3.46,0,0,0-2.77,1.27,4.68,4.68,0,0,0-1.09,3.17,4.72,4.72,0,0,0,1.07,3.16,3.75,3.75,0,0,0,5.59,0Z"/><path d="M118.37,8a1.35,1.35,0,0,1,.54,1.06,1.64,1.64,0,0,1-.42,1.23,1.43,1.43,0,0,1-1,.41,2.55,2.55,0,0,1-.9-.19l-.35-.1a2.29,2.29,0,0,0-1.92.34,3.08,3.08,0,0,0-1,1.28,4.66,4.66,0,0,0-.41,2v6.26a1.58,1.58,0,0,1-.45,1.15,1.52,1.52,0,0,1-1.14.47,1.5,1.5,0,0,1-1.13-.47,1.58,1.58,0,0,1-.45-1.15V9.47a1.58,1.58,0,0,1,.45-1.15,1.49,1.49,0,0,1,1.13-.46,1.51,1.51,0,0,1,1.14.46,1.58,1.58,0,0,1,.45,1.15v.35a3.94,3.94,0,0,1,1.74-1.66A5.48,5.48,0,0,1,117,7.6,2.1,2.1,0,0,1,118.37,8Z"/><path d="M128.64,19.37a1.34,1.34,0,0,1,.31.93,1.42,1.42,0,0,1-.78,1.21,3.31,3.31,0,0,1-1.76.49,5.19,5.19,0,0,1-2.76-.7c-.75-.47-1.12-1.46-1.12-3V11h-1.22a1.46,1.46,0,0,1-1.06-.42,1.45,1.45,0,0,1-.42-1.06,1.39,1.39,0,0,1,.42-1,1.5,1.5,0,0,1,1.06-.41h1.22V6.43A1.57,1.57,0,0,1,123,5.28a1.59,1.59,0,0,1,1.15-.46,1.52,1.52,0,0,1,1.11.46,1.6,1.6,0,0,1,.45,1.15V8.12h1.87a1.44,1.44,0,0,1,1.06.43,1.42,1.42,0,0,1,.42,1,1.36,1.36,0,0,1-.42,1,1.46,1.46,0,0,1-1.06.41H125.7v7.16A1,1,0,0,0,126,19a1.2,1.2,0,0,0,.79.25,2.28,2.28,0,0,0,.58-.11A1.56,1.56,0,0,1,128,19,.86.86,0,0,1,128.64,19.37Z"/></svg>