<?xml version="1.0" encoding="utf-8"?>
<!-- Generator: Adobe Illustrator 25.4.1, SVG Export Plug-In . SVG Version: 6.00 Build 0)  -->
<svg version="1.1" id="Layer_1" xmlns="http://www.w3.org/2000/svg" xmlns:xlink="http://www.w3.org/1999/xlink" x="0px" y="0px"
	 viewBox="0 0 636 303" style="enable-background:new 0 0 636 303;" xml:space="preserve">
<style type="text/css">
	.st0{clip-path:url(#SVGID_00000139256873837359076430000009271033777128739477_);}
	.st1{fill:none;stroke:#000000;stroke-miterlimit:10;}
</style>
<g>
	<defs>
		<rect id="SVGID_1_" width="636" height="303"/>
	</defs>
	<clipPath id="SVGID_00000066496958012522686400000012647769613179254206_">
		<use xlink:href="#SVGID_1_"  style="overflow:visible;"/>
	</clipPath>
	<g style="clip-path:url(#SVGID_00000066496958012522686400000012647769613179254206_);">
		<g>
			<path class="st1" d="M13.4,158.5c0-46,35.5-78.7,85.2-78.7c32.1,0,57.4,13.9,68.5,38.9l-34.4,18.5c-8.2-14.5-20.5-21-34.4-21
				c-22.4,0-40.1,15.6-40.1,42.3s17.6,42.3,40.1,42.3c13.9,0,26.1-6.3,34.4-21l34.4,18.8c-11.1,24.4-36.4,38.6-68.5,38.6
				C48.9,237.2,13.4,204.5,13.4,158.5z"/>
			<path class="st1" d="M327.9,147.7v87.2h-41.5v-19c-8.2,13.9-24.1,21.3-46.6,21.3c-35.8,0-57.1-19.9-57.1-46.3
				c0-27,19-45.7,65.6-45.7h35.2c0-19-11.4-30.1-35.2-30.1c-16.2,0-33,5.4-44,14.2l-15.9-31c16.8-11.9,41.5-18.5,65.9-18.5
				C300.9,79.8,327.9,101.4,327.9,147.7z M283.6,186.6V171h-30.4c-20.7,0-27.3,7.7-27.3,17.9c0,11.1,9.4,18.5,25,18.5
				C265.7,207.3,278.5,200.5,283.6,186.6z"/>
			<path class="st1" d="M353.2,220.7l14.8-31.8c13.6,8.8,34.4,14.8,53.1,14.8c20.5,0,28.1-5.4,28.1-13.9c0-25-92.3,0.6-92.3-60.5
				c0-29,26.1-49.4,70.7-49.4c21,0,44.3,4.8,58.8,13.4l-14.8,31.5c-15.1-8.5-30.1-11.4-44-11.4c-19.9,0-28.4,6.3-28.4,14.2
				c0,26.1,92.3,0.9,92.3,61.1c0,28.4-26.4,48.6-72.2,48.6C393.5,237.2,367.4,230.1,353.2,220.7z"/>
			<path class="st1" d="M617.4,227.5c-9.1,6.5-22.4,9.7-36.1,9.7c-36.1,0-57.1-18.5-57.1-54.8v-62.8h-23.6V85.4h23.6V48.2h44.3v37.2
				h38.1v34.1h-38.1v62.2c0,13.1,7.1,20.2,19,20.2c6.5,0,13.1-2,17.9-5.7L617.4,227.5z"/>
		</g>
	</g>
</g>
</svg>
