<?xml version="1.0" encoding="utf-8"?>
<!-- Generator: Adobe Illustrator 25.4.1, SVG Export Plug-In . SVG Version: 6.00 Build 0)  -->
<svg version="1.1" id="Layer_1" xmlns="http://www.w3.org/2000/svg" xmlns:xlink="http://www.w3.org/1999/xlink" x="0px" y="0px"
	 viewBox="0 0 1920.2 1075.6" style="enable-background:new 0 0 1920.2 1075.6;" xml:space="preserve">
<style type="text/css">
	.st0{fill:url(#Path_194_00000140009852530596045350000006189321437243561141_);}
	.st1{opacity:0.61;}
	.st2{opacity:0.64;fill:#FFFFFF;}
	.st3{opacity:0.23;fill:#FFFFFF;}
	.st4{opacity:0.39;fill:#FFFFFF;}
	.st5{opacity:0.6;fill:#FFFFFF;}
	.st6{opacity:0.33;fill:#FFFFFF;}
	.st7{opacity:0.62;fill:#FFFFFF;}
	.st8{opacity:0.14;fill:#FFFFFF;}
	.st9{opacity:0.54;fill:#FFFFFF;}
	.st10{opacity:0.3;fill:#FFFFFF;}
	.st11{opacity:0.15;fill:#FFFFFF;}
	.st12{opacity:0.43;fill:#FFFFFF;}
	.st13{opacity:0.35;fill:#FFFFFF;}
	.st14{opacity:0.69;fill:#FFFFFF;}
	.st15{opacity:0.42;fill:#FFFFFF;}
	.st16{opacity:0.2;fill:#FFFFFF;}
	.st17{opacity:0.57;fill:#FFFFFF;}
	.st18{opacity:0.41;fill:#FFFFFF;}
	.st19{opacity:0.53;fill:#FFFFFF;}
	.st20{opacity:0.56;fill:#FFFFFF;}
	.st21{opacity:0.18;fill:#FFFFFF;}
	.st22{opacity:0.63;fill:#FFFFFF;}
	.st23{opacity:0.34;fill:#FFFFFF;}
	.st24{opacity:0.17;fill:#FFFFFF;}
	.st25{opacity:0.16;fill:#FFFFFF;}
	.st26{opacity:0.7;fill:#FFFFFF;}
	.st27{opacity:0.27;fill:#FFFFFF;}
	.st28{opacity:0.24;fill:#FFFFFF;}
	.st29{opacity:0.13;fill:#FFFFFF;}
	.st30{opacity:0.22;fill:#FFFFFF;}
	.st31{opacity:0.44;fill:#FFFFFF;}
	.st32{opacity:0.36;fill:#FFFFFF;}
	.st33{opacity:0.77;fill:#FFFFFF;}
	.st34{opacity:0.25;fill:#FFFFFF;}
	.st35{opacity:0.37;fill:#FFFFFF;}
	.st36{opacity:0.55;fill:#FFFFFF;}
	.st37{opacity:0.4;fill:#FFFFFF;}
	.st38{opacity:0.68;fill:#FFFFFF;}
	.st39{opacity:0.78;fill:#FFFFFF;}
	.st40{opacity:0.51;fill:#FFFFFF;}
	.st41{opacity:0.28;fill:#FFFFFF;}
	.st42{opacity:0.48;fill:#FFFFFF;}
	.st43{opacity:0.47;fill:#FFFFFF;}
	.st44{opacity:0.52;fill:#FFFFFF;}
	.st45{opacity:0.45;fill:#FFFFFF;}
	.st46{opacity:0.26;fill:#FFFFFF;}
	.st47{opacity:0.32;fill:#FFFFFF;}
	.st48{opacity:0.67;fill:#FFFFFF;}
	.st49{opacity:0.29;fill:#FFFFFF;}
	.st50{opacity:0.73;fill:#FFFFFF;}
	.st51{opacity:0.79;fill:#FFFFFF;}
	.st52{opacity:0.46;fill:#FFFFFF;}
	.st53{opacity:0.72;fill:#FFFFFF;}
	.st54{opacity:0.66;fill:#FFFFFF;}
	.st55{opacity:0.1;fill:#FFFFFF;}
	.st56{opacity:0.19;fill:#FFFFFF;}
	.st57{opacity:0.38;fill:#FFFFFF;}
	.st58{opacity:0.21;fill:#FFFFFF;}
	.st59{opacity:0.11;fill:#FFFFFF;}
	.st60{opacity:0.65;fill:#FFFFFF;}
	.st61{opacity:0.12;fill:#FFFFFF;}
	.st62{opacity:0.5;fill:#FFFFFF;}
	.st63{opacity:0.61;fill:#FFFFFF;}
	.st64{opacity:0.59;fill:#FFFFFF;}
	.st65{opacity:0.31;fill:#FFFFFF;}
	.st66{opacity:0.74;fill:#FFFFFF;}
	.st67{opacity:0.75;fill:#FFFFFF;}
	.st68{opacity:0.49;fill:#FFFFFF;}
	.st69{opacity:0.71;fill:#FFFFFF;}
	.st70{opacity:0.76;fill:#FFFFFF;}
	.st71{opacity:0.58;fill:#FFFFFF;}
	.st72{fill:none;}
</style>
<g id="Group_112" transform="translate(0.089 0.042)">
	
		<linearGradient id="Path_194_00000063618600293365525240000005921584352436512670_" gradientUnits="userSpaceOnUse" x1="1051.1606" y1="-822.5587" x2="1050.5397" y2="-821.661" gradientTransform="matrix(1920.1058 0 0 1075.6212 -2016638.5 884699.1875)">
		<stop  offset="7.387060e-02" style="stop-color:#565656"/>
		<stop  offset="0.7399" style="stop-color:#F6F6F6"/>
		<stop  offset="1" style="stop-color:#FFFFFF"/>
	</linearGradient>
	<path id="Path_194" style="fill:url(#Path_194_00000063618600293365525240000005921584352436512670_);" d="M0,607.5
		c0,0,95.3,204.2,401.2,161.1c305.9-43,419.7-32.1,544.2,96.9s344,107.5,572.9,67.1s360.2,68.2,401.8,143
		c0-2.4-0.1-1075.6-0.1-1075.6H0V607.5z"/>
	<g>
		<g>
			<defs>
				<path id="SVGID_1_" d="M0,607.5c0,0,95.3,204.2,401.2,161.1c305.9-43,419.7-32.1,544.2,96.9s344,107.5,572.9,67.1
					s360.2,68.2,401.8,143c0-2.4-0.1-1075.6-0.1-1075.6H0V607.5z"/>
			</defs>
			<clipPath id="SVGID_00000165929239763357144180000011854323918113243042_">
				<use xlink:href="#SVGID_1_"  style="overflow:visible;"/>
			</clipPath>
		</g>
	</g>
</g>
<g>
	<g>
		<g class="st1">
			<polygon class="st2" points="975.3,49.1 826.1,51.2 932.3,-88.6 975.2,48.9 975.3,49.1 			"/>
			<polygon class="st3" points="1004.2,938.6 1157.4,882.6 1157.5,882.7 1051.1,1021.2 1004.4,938.8 1004.2,938.6 			"/>
			<polygon class="st4" points="975.3,49.1 961.7,118.7 826,51.4 826.1,51.2 975.3,49.1 975.3,49.1 			"/>
			<polygon class="st5" points="1004.2,938.6 1004.2,938.6 1004.2,938.6 1090.3,801.3 1157.4,882.6 			"/>
			<polygon class="st4" points="920.8,823.2 1004.3,938.8 1004.3,938.9 1004.2,938.8 906.6,894.8 			"/>
			<polygon class="st6" points="990.2,633.7 888.8,582.8 888.9,582.6 1033.4,597.2 1033.5,597.4 990.4,633.7 			"/>
			<polygon class="st7" points="920.7,822.4 990.3,633.8 1090.4,800.8 1090.4,800.8 920.7,822.5 			"/>
			<polygon class="st8" points="924.1,398.3 924.1,398.3 993.1,281.9 1085.2,366.1 1085.1,366.2 1085.1,366.2 			"/>
			<polygon class="st9" points="807.3,176.6 961.6,118.8 961.7,119 961.6,119.2 849.1,273.8 849.1,273.8 849,273.8 807.4,177.4 
				807.3,177.2 807.2,177.2 			"/>
			<polygon class="st10" points="975.3,48.9 975.3,48.9 975.2,48.9 1059.9,-87.9 1087.6,72 			"/>
			<polygon class="st11" points="1067.4,186.1 975.3,48.9 975.3,48.9 1087.6,72 1087.6,72.1 			"/>
			<polygon class="st12" points="993.2,281.8 993,281.8 961.6,119.2 961.7,119 1067.2,186.5 1067.4,186.7 1067.5,186.8 			"/>
			<polygon class="st13" points="1010.6,426.5 1010.6,426.5 1085,366.6 1077.1,490 			"/>
			<polygon class="st12" points="924.2,399 1010.6,426.8 1010.6,426.8 818,480.3 			"/>
			<polygon class="st14" points="1010.5,426.5 1010.6,426.8 1010.6,426.8 924.2,399 924.1,398.8 924.1,398.8 924.1,398.3 
				1085.1,366.2 1085.1,366.5 1085,366.6 1010.6,426.5 			"/>
			<polygon class="st15" points="1010.6,426.8 1010.6,426.8 1010.6,426.8 1010.6,426.8 1010.6,426.8 889,582.3 817.9,480.4 
				818,480.3 			"/>
			<polygon class="st11" points="1010.6,426.5 1077.1,490 1077.1,490.2 1033.4,596.6 1010.6,426.8 1010.6,426.8 1010.6,426.8 
				1010.6,426.8 1010.5,426.5 1010.6,426.5 			"/>
			<polygon class="st16" points="1179,1022.2 1157.5,882.7 1157.6,882.6 1243.8,912 1243.8,912 			"/>
			<polygon class="st15" points="1222.6,81 1222.6,81 1222.6,81 1087.7,72 1188,-86.9 1222.5,80.7 			"/>
			<polygon class="st17" points="1237,524.2 1077.2,490 1218.1,356.8 1237.1,523.9 1237.1,523.9 1237.1,523.9 1237.1,524.2 
				1237.1,524.2 1237.1,524.2 			"/>
			<polygon class="st18" points="1248.3,277.5 1177.8,170.8 1177.9,170.6 1331.5,175.7 1331.5,175.7 1331.6,175.8 1248.4,277.5 			
				"/>
			<polygon class="st19" points="1306.8,1023 1306.8,1023 1347.1,941.7 1434.8,1024 1434.7,1024.1 			"/>
			<polygon class="st15" points="1033.4,596.6 1033.4,596.6 1077.1,490.2 1157.7,643.3 1157.7,643.4 1033.6,596.7 			"/>
			<polygon class="st20" points="1033.4,597.2 888.9,582.6 888.9,582.3 889,582.3 889,582.3 1010.6,426.8 1033.4,596.6 
				1033.4,596.6 1033.6,596.7 			"/>
			<polygon class="st21" points="1067.2,186.5 961.7,119 961.6,118.8 961.7,118.7 961.7,118.7 975.3,49.1 975.3,49.1 975.2,48.9 
				975.2,48.9 975.3,48.9 1067.4,186.1 1067.4,186.1 			"/>
			<polygon class="st22" points="1033.5,597.4 1033.4,597.2 1033.6,596.7 1157.7,643.4 1157.8,643.6 1157.6,643.6 1157.5,643.8 
				1091.2,718.5 1091.1,718.6 			"/>
			<polygon class="st23" points="1051.1,1021.2 1051.1,1021.2 1157.5,882.7 1179,1022.2 1179,1022.3 			"/>
			<polygon class="st13" points="1067.4,186.1 1067.4,186.1 1087.6,72.1 1177.9,170.3 1177.9,170.3 1177.8,170.3 			"/>
			<polygon class="st24" points="1157.7,643.3 1077.1,490.2 1077.2,490 1237,524.2 1237.1,524.2 1237.1,524.2 			"/>
			<polygon class="st25" points="1091.1,718.6 1091.2,718.8 1091.2,718.8 990.4,633.7 1033.5,597.4 			"/>
			<polygon class="st14" points="1286.3,826.2 1286.3,826.2 1202.1,764.7 1201.9,764.5 1201.8,764.4 1222.8,729.3 			"/>
			<polygon class="st26" points="1091.2,718.8 1091.1,718.6 1091.2,718.5 1091.2,718.6 1201.8,764.4 1201.9,764.5 1202.1,764.7 
				1201.9,765 1090.5,801.1 1090.4,800.8 1090.4,800.8 1091.2,718.8 			"/>
			<polygon class="st27" points="1243.8,911.8 1243.8,912 1243.8,912 1243.8,912 1157.6,882.6 1202,765.2 			"/>
			<polygon class="st20" points="1085.1,366.2 1085.2,366.1 1098.4,263.5 1098.4,263.5 1098.3,263.2 1098.4,263.2 1098.4,263.2 
				1218,356 1218,356 1218.2,356.1 1218,356.6 1085.1,366.5 1085.1,366.2 			"/>
			<polygon class="st28" points="1098.4,263.5 1098.4,263.5 1098.4,263.5 1085.2,366.1 993.1,281.9 993.2,281.8 			"/>
			<polygon class="st29" points="1222.6,80.7 1354.3,40.4 1354.3,40.6 1331.5,175.1 1222.6,80.7 			"/>
			<polygon class="st30" points="1091.2,718.8 1090.4,800.8 990.3,633.8 990.4,633.7 1091.2,718.8 1091.2,718.8 			"/>
			<polygon class="st28" points="1077.2,490 1077.1,490 1085,366.6 1085.1,366.5 1218,356.6 1218.1,356.8 			"/>
			<polygon class="st31" points="1222.9,729.2 1222.7,729.2 1157.5,643.8 1157.6,643.6 1157.8,643.6 1315.3,557.3 1315.4,557.4 			
				"/>
			<polygon class="st19" points="1157.4,882.6 1090.3,801.3 1090.4,801.1 1090.5,801.1 1201.9,765 1202,765.2 1157.6,882.6 			"/>
			<polygon class="st32" points="1218,356 1098.4,263.2 1098.4,263.2 1248.3,277.5 1248.4,277.7 			"/>
			<polygon class="st33" points="1067.4,186.1 1177.8,170.3 1177.9,170.6 1177.8,170.8 1098.4,263.2 1098.3,263.2 1067.5,186.8 
				1067.4,186.7 1067.2,186.5 			"/>
			<polygon class="st34" points="1222.5,80.7 1315.7,-86.1 1354.3,40.4 1222.6,80.7 1222.6,80.7 			"/>
			<polygon class="st35" points="1315.2,556.7 1237.1,523.9 1237.1,523.9 1353,501.3 1353.1,501.4 			"/>
			<polygon class="st36" points="1316.6,394.8 1248.4,277.7 1248.4,277.5 1377.1,278.3 1377.1,278.3 			"/>
			<polygon class="st34" points="1218.1,356.8 1218,356.6 1218.2,356.1 1316.6,394.9 1316.7,395.1 1316.6,395.2 1316.5,395.3 
				1237.1,523.9 			"/>
			<polygon class="st15" points="1306.8,1023 1243.8,911.7 1243.8,911.7 1243.8,911.7 1347,941.6 1347.1,941.7 			"/>
			<polygon class="st33" points="1091.2,718.5 1222.7,729.2 1222.8,729.3 1201.8,764.4 1091.2,718.6 			"/>
			<polygon class="st31" points="1243.8,911.7 1286.1,826.7 1347,941.6 1243.8,911.7 			"/>
			<polygon class="st37" points="1218,356 1248.4,277.7 1316.6,394.8 1316.6,394.9 1218.2,356.1 1218,356 			"/>
			<polygon class="st38" points="1202,765.2 1201.9,765 1202.1,764.7 1286.3,826.2 1286.2,826.5 1286.1,826.7 1243.8,911.7 
				1243.8,911.7 1243.8,911.8 			"/>
			<polygon class="st39" points="1087.7,72 1087.6,72 1059.9,-87.9 1060,-88.1 1187.9,-87 1188,-86.9 			"/>
			<polygon class="st29" points="1177.9,170.3 1087.6,72.1 1087.7,72 1222.6,81 1222.6,81 			"/>
			<polygon class="st40" points="1090.4,801.1 1090.3,801.3 1004.2,938.6 1004.2,938.6 1004.4,938.8 1004.3,938.8 920.8,823.2 
				920.7,823 920.6,823 920.7,822.5 1090.4,800.8 1090.5,801.1 			"/>
			<polygon class="st41" points="1237.1,523.9 1237.1,523.9 1316.5,395.3 1353,501.3 1237.1,523.9 1237.1,523.9 			"/>
			<polygon class="st38" points="1091.2,718.5 1091.2,718.6 1091.2,718.5 1157.5,643.8 1222.7,729.2 			"/>
			<polygon class="st2" points="1098.4,263.2 1177.8,170.8 1248.3,277.5 1098.4,263.2 1098.4,263.2 			"/>
			<polygon class="st26" points="1098.3,263.2 1098.4,263.5 1098.4,263.5 993.2,281.8 1067.5,186.8 			"/>
			<polygon class="st25" points="1414.6,836.9 1414.6,836.8 1455.7,721.9 1551.2,850.8 1551.2,850.8 1414.7,836.9 			"/>
			<polygon class="st41" points="1331.5,175.1 1445,107.4 1445.1,107.6 1445,107.7 1377.1,278 1377,278.1 1331.6,175.8 
				1331.5,175.7 1331.5,175.7 			"/>
			<polygon class="st42" points="1347.1,941.7 1347.2,941.6 1499.2,954.3 1499.3,954.3 1434.8,1024 			"/>
			<polygon class="st10" points="1313.8,722 1313.8,722 1455.6,721.8 1455.7,721.9 1414.6,836.8 			"/>
			<polygon class="st15" points="1315.3,556.7 1315.5,557 1315.3,557.3 1157.8,643.6 1157.7,643.4 1157.7,643.3 1237.1,524.2 
				1237.1,524.2 1237.1,523.9 1237.1,523.9 1315.2,556.7 			"/>
			<polygon class="st43" points="1354.3,40.6 1354.4,40.4 1474.1,60.6 1474.1,60.6 1445.2,107.2 			"/>
			<polygon class="st42" points="1377,278.1 1377.1,278.3 1377.1,278.3 1377.1,278.3 1248.4,277.5 1331.6,175.8 			"/>
			<polygon class="st6" points="1315.3,556.7 1315.2,556.7 1353.1,501.4 1394.1,630.7 1394.1,630.7 1315.5,557 			"/>
			<polygon class="st18" points="1414.6,836.8 1414.6,836.9 1414.7,836.9 1414.6,837.4 1286.2,826.5 1286.3,826.2 1286.3,826.2 
				1313.8,722.3 1313.8,722 			"/>
			<polygon class="st44" points="1313.8,722.3 1313.8,722.3 1286.3,826.2 1222.8,729.3 1222.9,729.2 			"/>
			<polygon class="st45" points="1452,337.9 1377.1,278 1377.1,278 1505.2,208.1 1505.3,208.3 			"/>
			<polygon class="st46" points="1313.8,722 1313.8,722.3 1313.8,722.3 1222.9,729.2 1315.4,557.4 1313.8,721.9 1313.8,722 			"/>
			<polygon class="st14" points="1313.8,722 1313.8,721.9 1394,631.2 1455.6,721.8 			"/>
			<polygon class="st47" points="1315.5,557 1394.1,630.7 1394.1,631 1394.1,631 1394,631.2 1313.8,721.9 1315.4,557.4 
				1315.3,557.3 			"/>
			<polygon class="st9" points="1222.6,81 1222.5,80.7 1222.5,80.7 1222.6,80.7 1331.5,175.1 1331.5,175.1 1331.5,175.7 
				1177.9,170.6 1177.8,170.3 1177.9,170.3 1177.9,170.3 1222.6,81 			"/>
			<polygon class="st48" points="1331.5,175.1 1354.3,40.6 1445.2,107.2 1445.1,107.3 1445,107.4 1331.5,175.1 			"/>
			<polygon class="st49" points="1347.2,941.6 1347,941.6 1286.1,826.7 1286.2,826.5 1414.6,837.4 1414.7,837.6 			"/>
			<polygon class="st37" points="1354.4,40.4 1354.3,40.4 1315.7,-86.1 1315.8,-86.3 1443.7,-85.2 1443.8,-85.1 			"/>
			<polygon class="st38" points="1353.2,501.3 1353,501.3 1316.5,395.3 1316.6,395.2 1316.7,395.1 1452,338.5 1452.1,338.6 			"/>
			<polygon class="st50" points="1377.1,278 1377.1,278 1377.1,278 1445,107.7 1505.2,208.1 			"/>
			<polygon class="st46" points="1394.1,630.7 1353.1,501.4 1353.2,501.3 1481.4,511.9 1481.5,511.9 			"/>
			<polygon class="st16" points="1499.2,954.1 1551,851.3 1653,900.8 1499.2,954.1 1499.2,954.1 			"/>
			<polygon class="st42" points="1474.1,60.6 1474.1,60.6 1474.1,60.6 1354.4,40.4 1443.8,-85.1 1474.1,60.3 			"/>
			<polygon class="st2" points="1609.1,622.6 1481.4,511.7 1481.4,511.6 1601.2,494.3 1601.3,494.4 			"/>
			<polygon class="st51" points="1636.6,59.1 1636.5,59.1 1571.4,-84.3 1571.5,-84.5 1699.4,-83.5 1699.5,-83.3 			"/>
			<polygon class="st52" points="1481.4,511.6 1540.7,403.2 1601.2,494.3 1481.4,511.6 1481.4,511.7 			"/>
			<polygon class="st14" points="1572.8,166.9 1572.8,166.9 1572.6,167.4 1445.1,107.6 1445,107.4 1445.1,107.3 1445.2,107.2 
				1474.1,60.6 1474.1,60.6 1474.1,60.3 1474.1,60.3 1474.1,60.3 			"/>
			<polygon class="st39" points="1730.6,398.2 1730.6,398.2 1730.6,398.8 1540.8,403 1540.8,402.7 1540.8,402.7 1621,284.1 
				1621.1,284.1 1620.9,283.9 1621,283.8 1621,283.8 			"/>
			<polygon class="st53" points="1572.8,166.9 1709.7,122.3 1709.8,122.6 1709.7,122.7 1621,283.8 1620.9,283.9 1572.9,167.6 
				1572.8,167.5 1572.6,167.4 			"/>
			<polygon class="st43" points="1481.5,511.9 1481.5,511.9 1481.4,511.9 1353.2,501.3 1452.1,338.6 1481.4,511.6 			"/>
			<polygon class="st21" points="1572.8,166.9 1636.5,59.3 1709.9,122.2 1709.8,122.3 1709.7,122.3 1572.8,166.9 			"/>
			<polygon class="st50" points="1505.3,208.1 1505.2,208.1 1445,107.7 1445.1,107.6 1572.6,167.4 1572.8,167.5 1572.9,167.6 			"/>
			<polygon class="st54" points="1562.6,1024.8 1499.2,954.1 1499.2,954.1 1653,900.8 1653,900.9 			"/>
			<polygon class="st4" points="1505.3,208.3 1505.3,208.1 1505.3,208.1 1621,284.1 1621,284.1 1540.8,402.7 			"/>
			<polygon class="st38" points="1499.2,954.3 1347.2,941.6 1414.7,837.6 1499.1,954.1 1499.3,954.3 1499.3,954.3 			"/>
			<polygon class="st46" points="1540.8,402.7 1452.3,338.1 1452,337.9 1452,337.9 1505.3,208.3 1540.8,402.7 			"/>
			<polygon class="st44" points="1598.4,755.3 1598.4,755.2 1705.5,732.8 1705.6,732.9 1693.9,833.6 			"/>
			<polygon class="st42" points="1653.1,900.8 1653,900.8 1551,851.3 1551.1,851.1 1551.2,851.1 1694,834.2 1694.1,834.3 			"/>
			<polygon class="st53" points="1705.7,732.8 1705.5,732.8 1674,618.7 1674.1,618.5 1809.4,615.7 1809.5,615.9 			"/>
			<polygon class="st29" points="1705.6,732.9 1705.7,732.8 1861.4,734.9 1861.4,734.9 1820.2,804.7 			"/>
			<polygon class="st25" points="1414.7,836.9 1551.2,850.8 1551.2,851.1 1551.1,851.1 1551,851.3 1499.2,954.1 1499.1,954.1 
				1414.7,837.6 1414.6,837.4 			"/>
			<polygon class="st55" points="1562.6,1024.8 1562.6,1024.8 1653,900.9 1690.5,1025.8 1690.5,1025.8 			"/>
			<polygon class="st56" points="1674.1,618.2 1601.3,494.4 1601.3,494.3 1742.5,497.3 1742.6,497.3 			"/>
			<polygon class="st4" points="1636.6,59.1 1699.5,-83.3 1762.5,27.8 1762.5,27.8 			"/>
			<polygon class="st57" points="1598.4,755.3 1693.9,833.6 1694,833.6 1694,834.2 1551.2,851.1 1551.2,850.8 1551.2,850.8 
				1598.4,755.5 1598.4,755.5 			"/>
			<polygon class="st26" points="1598.4,755.2 1598.4,755.1 1674,618.7 1705.5,732.8 			"/>
			<polygon class="st25" points="1481.4,511.7 1609.1,622.6 1609.1,622.6 1609.1,623.2 1394.1,631 1394.1,630.7 1394.1,630.7 
				1481.5,511.9 1481.5,511.9 1481.4,511.6 1481.4,511.6 			"/>
			<polygon class="st27" points="1621,283.8 1763.1,281.4 1763.2,281.5 1730.6,398.2 1621,283.8 			"/>
			<polygon class="st35" points="1693.9,833.6 1705.6,732.9 1820.2,804.7 1820.2,804.8 1820.1,804.8 1694,833.6 			"/>
			<polygon class="st58" points="1609.1,622.6 1601.3,494.4 1674.1,618.2 1674.1,618.2 1674,618.2 1609.1,622.6 			"/>
			<polygon class="st59" points="1690.5,1025.8 1653,900.9 1653.1,900.8 1755.1,944.9 1755.1,944.9 			"/>
			<polygon class="st57" points="1609.1,622.6 1674,618.2 1674.1,618.5 1674,618.7 1598.4,755.1 1609.2,623.3 1609.1,623.2 			"/>
			<polygon class="st60" points="1621,283.8 1709.7,122.7 1763.1,281.4 1621,283.8 1621,283.8 			"/>
			<polygon class="st61" points="1452,338.5 1316.7,395.1 1316.6,394.9 1316.6,394.8 1377.1,278.3 1377.1,278.3 1377,278.1 
				1377.1,278 1377.1,278 1452,337.9 1452,337.9 1452.3,338.1 			"/>
			<polygon class="st16" points="1452.3,338.1 1540.8,402.7 1540.8,403 1540.8,403 1540.7,403.2 1481.4,511.6 1481.4,511.6 
				1452.1,338.6 1452,338.5 			"/>
			<polygon class="st2" points="1474.1,60.3 1571.4,-84.3 1636.5,59.1 1474.1,60.3 1474.1,60.3 			"/>
			<polygon class="st39" points="1455.7,721.8 1455.6,721.8 1394,631.2 1394.1,631 1394.1,631 1609.1,623.2 1609.2,623.3 			"/>
			<polygon class="st42" points="1598.3,755.5 1455.7,721.8 1609.2,623.3 1598.4,755.1 1598.3,755.2 1598.4,755.3 1598.4,755.5 
				1598.4,755.5 			"/>
			<polygon class="st59" points="1474.1,60.3 1636.5,59.1 1636.5,59.3 1572.8,166.9 1474.1,60.3 			"/>
			<polygon class="st10" points="1620.9,283.9 1621.1,284.1 1621,284.1 1621,284.1 1505.3,208.1 1505.3,208.1 1572.9,167.6 			"/>
			<polygon class="st7" points="1601.2,494.3 1540.7,403.2 1540.8,403 1540.8,403 1730.6,398.8 1730.6,398.8 1730.7,398.9 
				1601.3,494.3 			"/>
			<polygon class="st26" points="1551.2,850.8 1455.7,721.9 1455.7,721.8 1598.3,755.5 1598.4,755.5 			"/>
			<polygon class="st55" points="1730.6,398.2 1730.6,398.2 1763.2,281.5 1837.3,383.7 1837.3,383.7 			"/>
			<polygon class="st31" points="1742.5,497 1742.5,497 1742.5,497 1742.5,497 1837.1,384.2 1855.9,529.2 			"/>
			<polygon class="st28" points="1742.5,497.1 1742.5,497 1742.5,497 1855.9,529.2 1855.9,529.3 1809.3,615.2 			"/>
			<polygon class="st31" points="1755.1,944.6 1820.1,805.2 1842.9,915.7 1755.1,944.6 1755.1,944.6 			"/>
			<polygon class="st33" points="1763.3,281.4 1825.6,139.6 1888.6,250.6 1888.6,250.7 			"/>
			<polygon class="st38" points="1742.5,497.3 1601.3,494.3 1730.7,398.9 1742.5,497 1742.5,497 1742.5,497 1742.5,497.1 
				1742.6,497.3 1742.6,497.3 			"/>
			<polygon class="st34" points="1818.4,1026.6 1755.1,944.6 1755.1,944.6 1842.9,915.7 1843,915.9 			"/>
			<polygon class="st38" points="1755,944.7 1755.1,944.9 1755.1,944.9 1755.1,944.9 1653.1,900.8 1694.1,834.3 			"/>
			<polygon class="st53" points="1762.5,27.8 1762.5,27.8 1762.5,27.8 1709.9,122.2 1636.5,59.3 1636.6,59.1 			"/>
			<polygon class="st3" points="1809.4,615.2 1809.3,615.2 1855.9,529.3 1977.2,622.5 1977.2,622.6 1809.4,615.2 			"/>
			<polygon class="st49" points="1742.6,497.3 1742.5,497.1 1809.3,615.2 1809.4,615.2 1809.4,615.2 1809.4,615.7 1674.1,618.5 
				1674,618.2 1674.1,618.2 1674.1,618.2 1742.6,497.3 			"/>
			<polygon class="st24" points="1856,529.2 1855.9,529.2 1837.1,384.2 1837.2,384 1837.3,384 1951.6,362.2 1951.7,362.4 			"/>
			<polygon class="st20" points="1694,833.6 1820.1,804.8 1820.2,805.1 1820.1,805.2 1755.1,944.6 1755,944.7 1694.1,834.3 
				1694,834.2 			"/>
			<polygon class="st54" points="1842.9,915.7 1820.1,805.2 1820.2,805.1 1927.1,836.8 1927.1,836.8 1927.3,836.9 1927.4,837 
				1843,915.7 			"/>
			<polygon class="st35" points="1818.4,1026.6 1843,915.9 1946.3,1027.6 1946.3,1027.6 1818.4,1026.6 			"/>
			<polygon class="st22" points="1730.6,398.2 1837.3,383.7 1837.3,384 1837.2,384 1837.1,384.2 1742.5,497 1730.7,398.9 
				1730.6,398.8 1730.6,398.8 			"/>
			<polygon class="st54" points="1763.3,281.4 1763.1,281.4 1709.7,122.7 1709.8,122.6 1825.5,139.4 1825.6,139.6 			"/>
			<polygon class="st21" points="2098.2,926 2098,926 2099.4,773 2099.5,772.8 2203.8,807.9 2203.9,808.1 			"/>
			<polygon class="st38" points="1927.3,836.3 1927.2,836.3 1994.3,726.2 2099.5,772.5 2099.5,772.5 2099.4,772.6 			"/>
			<polygon class="st57" points="1992.8,916.7 2098,926 2098.1,926.2 2074.1,1028.3 1992.9,916.9 1992.7,916.7 1992.7,916.7 			"/>
			<polygon class="st58" points="2098.2,926 2203.9,808.1 2266.9,919.2 2266.9,919.2 			"/>
			<polygon class="st36" points="1994.2,726.1 1977.1,623 1977.2,622.8 1977.3,622.8 2077.7,585 2077.8,585.2 1994.4,726.1 			"/>
			<polygon class="st4" points="1992.8,917 1946.3,1027.6 1843,915.9 1843,915.7 1992.8,917 1992.8,916.9 			"/>
			<polygon class="st12" points="1994.4,726.1 2077.8,585.2 2140.8,696.3 2140.8,696.3 			"/>
			<polygon class="st44" points="2140.8,696.3 2140.8,696.3 2140.8,696.3 2099.5,772.5 1994.3,726.2 1994.4,726.1 			"/>
			<polygon class="st40" points="1861.4,734.6 1927.2,836.3 1927.3,836.3 1927.1,836.8 1820.2,805.1 1820.1,804.8 1820.2,804.8 
				1820.2,804.7 1861.4,734.9 1861.4,734.9 1861.3,734.6 			"/>
			<polygon class="st51" points="2266.9,919.2 2266.9,919.2 2266.9,919.2 2202.1,1029.4 2098.1,926.2 2098.2,926 			"/>
			<polygon class="st62" points="1809.4,615.2 1977.2,622.6 1977.3,622.8 1977.2,622.8 1977.1,623 1861.4,734.6 1861.4,734.6 
				1861.3,734.6 1809.5,615.9 1809.4,615.7 			"/>
			<polygon class="st19" points="2014.7,473.5 2014.7,473.5 2014.7,473.5 1977.2,622.5 1855.9,529.3 1856,529.2 			"/>
			<polygon class="st25" points="1856,529.2 1951.7,362.4 2014.7,473.5 2014.7,473.5 			"/>
			<polygon class="st53" points="1861.4,734.6 1977.1,623 1994.2,726.1 1861.4,734.6 			"/>
			<polygon class="st5" points="1861.3,734.6 1861.4,734.9 1861.4,734.9 1861.4,734.9 1705.7,732.8 1809.5,615.9 			"/>
			<polygon class="st63" points="2074.1,1028.4 2074.1,1028.3 2098.1,926.2 2202.1,1029.4 2202,1029.4 			"/>
			<polygon class="st54" points="1992.8,916.9 1927.4,837 1927.3,836.9 1927.1,836.8 1927.1,836.8 1927.3,836.3 2099.4,772.6 
				2099.5,772.8 2099.4,773 1992.7,916.7 1992.7,916.7 1992.9,916.9 1992.8,917 			"/>
			<polygon class="st56" points="1888.6,250.7 1837.3,383.7 1763.2,281.5 1763.3,281.4 1888.6,250.7 1888.6,250.6 			"/>
			<polygon class="st15" points="1992.7,916.7 2099.4,773 2098,926 1992.8,916.7 			"/>
			<polygon class="st53" points="1927.4,837 1992.8,916.9 1992.8,917 1843,915.7 			"/>
			<polygon class="st61" points="1927.2,836.3 1861.4,734.6 1861.4,734.6 1861.4,734.6 1994.2,726.1 1994.3,726.2 			"/>
			<polygon class="st50" points="157.7,793 157.7,793 251.1,705.9 306.2,827.3 306.1,827.4 			"/>
			<polygon class="st56" points="-157.5,236.1 -157.5,236.1 -157.5,236.1 -40,257.9 -39.9,258 -94.5,347.3 			"/>
			<polygon class="st42" points="196.8,327 196.8,326.9 221.5,267.5 338.5,349.7 338.5,349.8 196.9,327 			"/>
			<polygon class="st17" points="138.2,598.7 85.8,491.2 85.9,491.1 235.1,420.5 235.1,420.6 			"/>
			<polygon class="st49" points="-157.5,236.1 -52.5,124.4 -40,257.9 -157.5,236.1 			"/>
			<polygon class="st11" points="-283.6,13.3 -178.6,27 -178.6,27.1 -220.6,124.5 -283.6,13.3 -283.6,13.3 			"/>
			<polygon class="st36" points="-218.9,-96.8 -178.6,27 -283.6,13.3 -283.6,13.3 			"/>
			<polygon class="st12" points="85.7,491.1 -1,357.9 -0.9,357.7 -0.8,357.7 196.8,327.5 196.9,327.7 85.9,491.1 			"/>
			<polygon class="st64" points="-31.4,458.9 -1,357.9 85.7,491.1 -31.4,458.9 -31.4,458.9 			"/>
			<polygon class="st65" points="23.4,7.2 74.5,46.5 74.6,46.7 68.7,111.5 23.5,7.5 23.4,7.3 			"/>
			<polygon class="st49" points="93.3,267.4 205.6,104.6 221.4,267.4 93.3,267.4 93.3,267.4 			"/>
			<polygon class="st26" points="-90.8,-95.8 23.4,7.5 23.4,7.5 -178.5,27 			"/>
			<polygon class="st8" points="-94.5,347.4 -94.5,347.3 -39.9,258 -0.9,357.4 -0.9,357.4 			"/>
			<polygon class="st46" points="94.6,681.8 138.1,599.2 251,705.8 94.7,681.8 			"/>
			<polygon class="st56" points="-220.6,124.5 -178.6,27.1 -52.4,123.9 -52.4,124 -220.6,124.5 			"/>
			<polygon class="st44" points="-178.5,27 23.4,7.5 23.4,7.5 23.4,7.5 -52.4,123.9 -178.6,27.1 			"/>
			<polygon class="st61" points="157.7,793 94.6,681.8 94.6,681.8 94.7,681.8 251,705.8 251.1,705.9 			"/>
			<polygon class="st8" points="-52.4,123.9 23.4,7.5 23.5,7.5 68.7,111.5 68.7,111.5 68.7,112.1 -52.4,124.2 -52.4,124 			"/>
			<polygon class="st9" points="74.7,46.5 74.5,46.5 36.9,-95 37,-95.2 164.9,-94.2 165,-94 			"/>
			<polygon class="st50" points="196.8,326.9 93.3,267.4 93.3,267.4 221.4,267.4 221.5,267.5 			"/>
			<polygon class="st35" points="-218.8,-97 -90.9,-96 -90.8,-95.8 -178.5,27 -178.6,27 -218.9,-96.8 			"/>
			<polygon class="st57" points="31.6,570.2 -31.4,458.9 -31.4,458.9 85.7,491.1 85.8,491.2 			"/>
			<polygon class="st36" points="93.3,267.7 -39.9,257.9 68.8,112.3 93.3,267.4 93.4,267.7 93.4,267.7 			"/>
			<polygon class="st33" points="-40,257.9 -52.5,124.4 -52.4,124.3 -52.4,124.2 68.7,112.1 68.8,112.3 -39.9,257.9 			"/>
			<polygon class="st8" points="-0.9,357.4 -39.9,258 -39.9,257.9 93.3,267.7 93.4,267.7 			"/>
			<polygon class="st60" points="68.7,111.5 68.7,111.5 74.6,46.7 205.7,104.1 205.7,104.1 205.7,104.2 			"/>
			<polygon class="st51" points="31.6,570.2 31.6,570.2 85.8,491.2 138.2,598.7 138.2,598.7 			"/>
			<polygon class="st52" points="23.4,7.2 23.4,7.3 23.4,7.2 36.9,-95 74.5,46.5 			"/>
			<polygon class="st19" points="367.7,276.7 447.2,158.3 518.1,296.3 367.7,276.7 			"/>
			<polygon class="st62" points="308.3,557.4 444.1,559.3 444.1,559.6 444,559.7 342.1,728.1 342.1,728.1 308.4,558.1 308.3,557.9 
							"/>
			<polygon class="st37" points="309.1,486 479.8,505.2 479.8,505.2 479.8,505.2 444.2,559.3 309,486.2 			"/>
			<polygon class="st60" points="416.8,411.4 416.8,411.5 416.6,411.8 338.5,350 338.5,349.8 338.5,349.7 367.7,277 367.7,277 			
				"/>
			<polygon class="st66" points="551.7,559.3 573,488 638.3,597.2 638.3,597.3 552,559.4 551.7,559.3 			"/>
			<polygon class="st66" points="367.6,925.2 306,827.8 306.1,827.6 306.2,827.6 436.4,808.2 436.5,808.3 367.7,925.2 			"/>
			<polygon class="st10" points="476.2,946.6 476.2,946.6 476.2,946.6 570.3,794.9 604.3,947.9 			"/>
			<polygon class="st67" points="235.1,420.3 308.9,486 309,486.2 308.3,557.3 235,420.3 235.1,420.3 			"/>
			<polygon class="st52" points="416.8,411.5 416.8,411.4 518.1,296.4 548.7,400.7 548.7,400.8 548.6,400.8 			"/>
			<polygon class="st23" points="448.1,40.2 448.2,40.5 448.2,40.5 361.4,-22.3 420.7,-92.2 			"/>
			<polygon class="st45" points="305.2,189.8 305.2,189.8 305,190.1 205.7,104.4 205.7,104.2 205.7,104.1 205.7,104.1 256.6,30.8 
				256.6,30.7 			"/>
			<polygon class="st52" points="196.9,327 338.5,349.8 338.5,350 338.3,350.2 235.1,420.3 235,420.3 235,420.3 196.9,327.7 
				196.8,327.5 			"/>
			<polygon class="st53" points="196.8,327.5 -0.8,357.7 -0.9,357.4 -0.9,357.4 93.4,267.7 93.4,267.7 93.3,267.4 93.3,267.4 
				93.3,267.4 196.8,326.9 196.8,327 196.9,327 			"/>
			<polygon class="st68" points="361.3,-22.2 361.4,-22.3 448.2,40.5 448.2,40.5 447.4,157.8 			"/>
			<polygon class="st57" points="205.6,104.6 93.3,267.4 93.3,267.4 68.8,112.3 68.7,112.1 68.7,111.5 205.7,104.2 205.7,104.4 			
				"/>
			<polygon class="st4" points="221.4,267.4 205.6,104.6 205.7,104.4 305,190.1 305.3,190.4 305.4,190.6 221.6,267.4 			"/>
			<polygon class="st17" points="256.6,30.8 256.6,30.7 256.6,30.8 205.7,104.1 74.6,46.7 74.7,46.5 			"/>
			<polygon class="st8" points="342.1,728.4 342.1,728.1 342.1,728.1 342.1,728.1 436.3,807.6 436.4,807.6 436.4,808.2 306.2,827.6 
				306.1,827.4 306.2,827.3 342.1,728.4 			"/>
			<polygon class="st7" points="283.8,1015.8 220.7,904.6 220.7,904.6 220.8,904.6 367.6,925.2 367.7,925.4 			"/>
			<polygon class="st27" points="220.7,904.6 306,827.8 367.6,925.2 220.8,904.6 			"/>
			<polygon class="st46" points="256.5,30.5 292.6,-93.2 361.2,-22.4 256.6,30.5 			"/>
			<polygon class="st30" points="305.2,189.8 305.2,189.8 361.3,-22.2 447.4,157.8 447.4,157.9 447.3,157.9 			"/>
			<polygon class="st23" points="367.7,276.7 518.1,296.3 518.1,296.4 416.8,411.4 367.7,277 367.6,276.7 367.7,276.7 			"/>
			<polygon class="st66" points="539.5,1017.6 604.3,948.1 667.5,1018.7 667.5,1018.7 539.6,1017.7 			"/>
			<polygon class="st17" points="448.2,40.2 569.5,63.9 569.6,64.1 565,168.1 448.2,40.3 			"/>
			<polygon class="st21" points="476.1,946.6 476.2,946.9 476.2,946.9 476.2,946.9 367.7,925.2 436.5,808.3 			"/>
			<polygon class="st39" points="235.1,420.3 235.1,420.3 338.3,350.2 308.9,486 			"/>
			<polygon class="st52" points="308.3,557.4 308.3,557.4 308.3,557.9 138.3,599 138.2,598.7 138.2,598.7 235.1,420.6 235.1,420.5 
				235,420.3 235,420.3 308.3,557.3 			"/>
			<polygon class="st19" points="235.1,420.5 85.9,491.1 196.9,327.7 235,420.3 235.1,420.5 235.1,420.6 			"/>
			<polygon class="st45" points="251.2,705.8 251,705.8 138.1,599.2 138.2,599 138.3,599 308.3,557.9 308.4,558.1 			"/>
			<polygon class="st69" points="256.6,30.7 256.5,30.5 256.5,30.5 256.6,30.5 361.2,-22.4 361.3,-22.2 305.2,189.8 			"/>
			<polygon class="st26" points="305.4,190.6 367.7,277 367.7,277 221.6,267.4 			"/>
			<polygon class="st14" points="165,-94 256.6,30.7 256.6,30.8 74.7,46.5 			"/>
			<polygon class="st23" points="361.4,-22.3 361.2,-22.4 292.6,-93.2 292.7,-93.4 420.6,-92.4 420.7,-92.2 			"/>
			<polygon class="st13" points="306.2,827.3 251.1,705.9 251.2,705.8 342.1,728.4 342.1,728.4 			"/>
			<polygon class="st56" points="448.2,40.5 448.1,40.2 448.1,40.2 448.2,40.3 565,168.1 565,168.1 565,168.7 447.3,158.1 
				447.3,157.9 447.4,157.9 447.4,157.8 			"/>
			<polygon class="st30" points="448.2,40.2 448.2,40.3 448.1,40.2 548.4,-91.5 569.5,63.9 			"/>
			<polygon class="st12" points="283.8,1015.9 283.8,1015.8 367.7,925.4 411.7,1016.9 411.7,1016.9 			"/>
			<polygon class="st66" points="308.3,557.3 309,486.2 444.2,559.3 444.1,559.3 444.1,559.3 308.3,557.4 308.3,557.4 			"/>
			<polygon class="st70" points="436.3,807.6 504.5,658.4 570.4,794.4 570.4,794.5 570.4,794.5 436.4,807.6 			"/>
			<polygon class="st44" points="305.3,190.4 305,190.1 305.2,189.8 447.3,157.9 447.3,158.1 447.2,158.3 367.7,276.7 367.6,276.7 
				367.7,277 367.7,277 367.7,277 305.4,190.6 			"/>
			<polygon class="st36" points="308.9,486 338.3,350.2 338.5,350 416.6,411.8 416.8,412 416.9,412.2 309.1,486 			"/>
			<polygon class="st40" points="342.1,728.1 444,559.7 504.5,658.2 342.1,728.1 342.1,728.1 			"/>
			<polygon class="st11" points="479.7,505 551.7,559.3 551.7,559.3 552,559.4 551.8,559.9 444.1,559.6 444.1,559.3 444.1,559.3 
				444.2,559.3 479.8,505.2 479.8,505.2 479.6,505 479.7,504.9 			"/>
			<polygon class="st16" points="504.5,658.2 444,559.7 444.1,559.6 551.8,559.9 551.9,560.1 504.6,658.2 			"/>
			<polygon class="st32" points="342.1,728.1 342.1,728.4 342.1,728.4 342.1,728.4 251.2,705.8 308.4,558.1 			"/>
			<polygon class="st31" points="411.7,1016.9 367.7,925.4 367.7,925.2 476.2,946.9 476.2,946.9 			"/>
			<polygon class="st49" points="479.8,504.9 479.7,505 479.7,504.9 548.5,401.2 572.9,487.9 			"/>
			<polygon class="st4" points="479.8,504.9 572.9,487.9 573,488 551.7,559.3 479.7,505 			"/>
			<polygon class="st42" points="518.1,296.3 447.2,158.3 447.3,158.1 565,168.7 565,168.7 565.1,168.8 518.2,296.3 			"/>
			<polygon class="st71" points="539.5,1017.6 476.2,946.6 476.2,946.6 604.3,947.9 604.3,948.1 			"/>
			<polygon class="st40" points="367.7,277 367.7,277 367.7,277 338.5,349.7 221.5,267.5 221.6,267.4 			"/>
			<polygon class="st27" points="479.8,505.2 309.1,486 416.9,412.2 479.6,505 479.8,505.2 			"/>
			<polygon class="st55" points="416.8,411.5 548.6,400.8 548.6,401 548.5,401.2 479.7,504.9 479.6,505 416.9,412.2 416.8,412 
				416.6,411.8 			"/>
			<polygon class="st49" points="436.3,807.6 342.1,728.1 342.1,728.1 504.5,658.2 504.5,658.4 			"/>
			<polygon class="st32" points="620.4,286.1 620.3,285.9 620.3,285.9 620.4,285.9 701,297.8 701.1,297.9 668.6,401.4 			"/>
			<polygon class="st42" points="620.3,285.9 620.4,286.1 620.4,286.2 620.4,286.2 565.1,168.8 565,168.7 565,168.7 565,168.1 
				693.5,160.4 693.5,160.7 693.4,160.8 620.3,285.9 			"/>
			<polygon class="st8" points="668.6,401.4 701.1,297.9 783.4,396.6 783.4,396.6 783.3,396.6 668.6,401.4 			"/>
			<polygon class="st37" points="552,559.4 638.3,597.3 638.3,597.6 638.2,597.6 638.1,597.7 588.5,708.2 588.4,708.2 551.9,560.1 
				551.8,559.9 			"/>
			<polygon class="st4" points="701,297.8 693.4,160.8 693.5,160.7 807.2,177.2 807.3,177.2 807.4,177.4 701.1,297.8 			"/>
			<polygon class="st44" points="620.3,285.9 693.4,160.8 701,297.8 620.4,285.9 			"/>
			<polygon class="st56" points="565,168.1 565,168.1 569.6,64.1 693.6,160.3 693.5,160.4 693.5,160.4 			"/>
			<polygon class="st53" points="569.5,63.9 548.4,-91.5 548.5,-91.6 676.4,-90.6 676.5,-90.4 569.6,63.9 			"/>
			<polygon class="st68" points="588.4,708.2 588.5,708.5 588.5,708.5 504.6,658.2 551.9,560.1 			"/>
			<polygon class="st58" points="638.3,597.2 573,488 573.1,487.9 709.7,519.9 709.7,520 			"/>
			<polygon class="st40" points="588.5,708.2 744.5,639.9 744.6,640 702.9,796.8 588.5,708.2 			"/>
			<polygon class="st10" points="436.5,808.3 436.4,808.2 436.4,807.6 570.4,794.5 570.4,794.7 570.3,794.9 476.2,946.6 
				476.1,946.6 			"/>
			<polygon class="st11" points="573.1,487.9 572.9,487.9 548.5,401.2 548.6,401 668.6,402 668.6,402 668.7,402.2 			"/>
			<polygon class="st27" points="620.4,286.2 518.2,296.3 565.1,168.8 620.4,286.2 			"/>
			<polygon class="st69" points="620.4,286.2 548.7,400.7 518.1,296.4 518.2,296.3 620.4,286.2 620.4,286.2 			"/>
			<polygon class="st71" points="668.6,402 548.6,401 548.6,400.8 548.7,400.8 548.7,400.7 620.4,286.2 620.4,286.1 668.6,401.4 
				668.6,401.4 			"/>
			<polygon class="st46" points="588.5,708.2 638.1,597.7 744.5,639.9 588.5,708.2 588.5,708.2 			"/>
			<polygon class="st41" points="588.5,708.5 570.4,794.4 504.5,658.4 504.6,658.2 588.5,708.5 			"/>
			<polygon class="st33" points="604.3,947.9 570.3,794.9 570.4,794.7 702.9,797.4 702.9,797.4 703,797.6 604.4,947.9 			"/>
			<polygon class="st16" points="742.8,866.9 667.5,1018.7 604.3,948.1 604.4,947.9 742.8,866.9 742.8,866.9 			"/>
			<polygon class="st65" points="744.5,639.9 638.1,597.7 638.2,597.6 638.3,597.6 780.1,599 780.1,599 780.2,599.1 744.7,639.9 			
				"/>
			<polygon class="st6" points="742.8,866.6 906.5,894.8 906.6,894.9 795.3,1019.4 742.8,866.9 742.7,866.6 742.7,866.6 			"/>
			<polygon class="st32" points="703,797.6 742.8,866.9 742.8,866.9 604.4,947.9 			"/>
			<polygon class="st46" points="742.7,866.6 821.4,796.1 906.5,894.8 742.8,866.6 			"/>
			<polygon class="st18" points="744.6,640 744.7,639.9 744.7,639.9 861.6,726 861.7,726 821.5,795.6 			"/>
			<polygon class="st34" points="668.6,401.4 783.3,396.6 783.4,396.9 783.3,397.1 709.7,519.7 709.6,519.7 668.7,402.2 668.6,402 
				668.6,402 			"/>
			<polygon class="st19" points="783.4,396.6 701.1,297.9 701.1,297.8 849.1,274.1 849.1,274.1 			"/>
			<polygon class="st68" points="638.3,597.2 709.7,520 709.7,519.9 709.6,519.7 709.7,519.7 709.7,519.7 780.1,598.4 780.1,598.4 
				780.1,599 638.3,597.6 638.3,597.3 			"/>
			<polygon class="st64" points="702.9,797.4 570.4,794.7 570.4,794.5 570.4,794.5 570.4,794.4 588.5,708.5 588.4,708.2 
				588.5,708.2 588.5,708.2 702.9,796.8 702.9,796.9 			"/>
			<polygon class="st55" points="702.9,796.8 744.6,640 821.5,795.6 821.5,795.7 821.5,795.7 702.9,796.9 			"/>
			<polygon class="st31" points="709.7,519.7 783.3,397.1 817.8,480.3 709.7,519.7 709.7,519.7 			"/>
			<polygon class="st13" points="709.7,519.7 817.8,480.3 817.9,480.4 780.1,598.4 709.7,519.7 			"/>
			<polygon class="st68" points="709.6,519.7 709.7,519.9 709.7,520 709.7,519.9 573.1,487.9 668.7,402.2 			"/>
			<polygon class="st54" points="721.9,51.8 825.9,51.2 826,51.4 807.3,176.6 721.9,51.8 			"/>
			<polygon class="st53" points="721.9,51.8 721.9,52 721.9,52 569.6,63.9 676.5,-90.4 			"/>
			<polygon class="st64" points="721.9,51.8 721.9,51.8 721.9,51.8 804.2,-89.7 825.9,51.2 			"/>
			<polygon class="st23" points="780.1,598.4 817.9,480.4 889,582.3 889,582.3 888.9,582.3 780.1,598.4 			"/>
			<polygon class="st64" points="721.9,52 721.9,52 721.9,52 693.6,160.3 569.6,64.1 569.6,63.9 			"/>
			<polygon class="st17" points="742.7,866.6 742.8,866.9 742.8,866.9 742.8,866.9 703,797.6 702.9,797.4 702.9,797.4 702.9,796.9 
				821.5,795.7 821.5,795.9 821.4,796.1 742.7,866.6 			"/>
			<polygon class="st70" points="818,480.3 817.8,480.3 783.3,397.1 783.4,396.9 924.1,398.8 924.1,398.8 924.2,399 			"/>
			<polygon class="st66" points="849.1,273.8 961.6,119.2 993,281.8 849.1,273.8 			"/>
			<polygon class="st61" points="849,273.8 849.1,274.1 849.1,274.1 849.1,274.1 701.1,297.8 807.4,177.4 			"/>
			<polygon class="st32" points="861.6,725.7 990.2,633.7 990.3,633.8 920.7,822.4 861.8,725.9 861.6,725.7 			"/>
			<polygon class="st60" points="780.1,598.4 888.9,582.3 888.9,582.6 888.8,582.8 861.6,725.7 861.6,725.7 861.8,725.9 861.7,726 
				780.2,599.1 780.1,599 780.1,599 			"/>
			<polygon class="st71" points="826.1,51.2 825.9,51.2 804.2,-89.7 804.3,-89.8 932.2,-88.8 932.3,-88.6 			"/>
			<polygon class="st13" points="924.1,398.3 849.1,273.8 849.1,273.8 849.1,273.8 993,281.8 993.1,281.9 			"/>
			<polygon class="st70" points="861.6,725.7 861.6,725.7 861.6,725.7 888.8,582.8 990.2,633.7 			"/>
			<polygon class="st46" points="795.3,1019.4 906.6,894.9 923.2,1020.4 923.2,1020.5 795.3,1019.5 			"/>
			<polygon class="st48" points="721.9,51.8 807.3,176.6 807.3,176.6 807.2,177.2 693.5,160.7 693.5,160.4 693.5,160.4 693.6,160.3 
				721.9,52 721.9,52 721.9,51.8 721.9,51.8 			"/>
			<polygon class="st37" points="807.3,176.6 807.3,176.6 826,51.4 961.7,118.7 961.7,118.7 961.6,118.8 			"/>
			<polygon class="st40" points="861.6,726 744.7,639.9 744.7,639.9 780.2,599.1 861.7,726 861.7,726 			"/>
			<polygon class="st6" points="906.6,894.8 906.5,894.8 821.4,796.1 821.5,795.9 920.6,823 920.7,823 920.8,823.2 			"/>
			<polygon class="st4" points="923.2,1020.4 906.6,894.9 906.6,894.8 1004.2,938.8 1004.3,938.9 			"/>
			<polygon class="st51" points="849.1,274.1 849,273.8 849.1,273.8 924.1,398.3 924.1,398.3 924.1,398.8 783.4,396.9 783.3,396.6 
				783.4,396.6 783.4,396.6 849.1,274.1 			"/>
			<polygon class="st39" points="920.6,823 821.5,795.9 821.5,795.7 821.5,795.7 821.5,795.6 861.7,726 861.7,726 861.8,725.9 
				920.7,822.4 920.7,822.5 			"/>
		</g>
	</g>
	<g>
		<polygon class="st58" points="1416.2,983.3 1624.1,694.8 1716.6,1034.8 		"/>
		<polygon class="st32" points="1146.3,933.7 1348,633.3 1049.6,674.3 		"/>
		<polygon class="st15" points="1473.9,672.4 1529.2,382.1 1348,476.5 		"/>
		<polygon class="st23" points="975.2,392.1 960.9,99.8 637.6,307.7 		"/>
		<polygon class="st9" points="544.6,560.9 528.4,412.6 411.1,501.3 		"/>
		<polygon class="st8" points="816.9,794 870.3,604.2 676.7,711.5 		"/>
		<polygon class="st11" points="625.2,1034.8 614.7,773 398.7,812.6 		"/>
		<polygon class="st48" points="1455.3,109.8 1513,-116.7 1327.5,-116.7 		"/>
		<polygon class="st41" points="1760,332.5 1591.2,245.7 1879.6,99.8 		"/>
		<polygon class="st16" points="168,282.9 493.1,11.1 60.7,-3.2 		"/>
		<polygon class="st8" points="754.9,139.9 936.1,-116.7 653.8,-50.9 		"/>
		<polygon class="st6" points="1207.8,392.1 1280.3,186.1 1084.4,256.2 		"/>
		<polygon class="st55" points="991.9,604.2 1198.8,560.9 1049.6,371.6 		"/>
		<polygon class="st2" points="917.5,1034.8 936.1,864.6 794.9,880.3 		"/>
		<polygon class="st48" points="213.3,709.6 447.9,633.3 240,589.9 		"/>
		<polygon class="st6" points="447.9,382.1 503.6,155.1 246.2,301.5 		"/>
		<polygon class="st54" points="1022.5,648.7 1284.7,898.1 1294.5,596.9 		"/>
		<polygon class="st13" points="1225,1015.6 1501.9,1118.9 1439.3,924.4 		"/>
		<polygon class="st67" points="1585.2,571.1 1875.7,606.1 1725.2,252.5 		"/>
		<polygon class="st34" points="1491.2,118.3 1640.1,127.3 1572.4,-3.3 		"/>
		<polygon class="st40" points="1215.6,347.5 1393.7,432 1320.5,223.2 		"/>
		<polygon class="st67" points="1010.5,118 1270.3,151.7 1267.6,-67.9 		"/>
		<polygon class="st20" points="1546.1,800.4 1736.9,906.5 1700.8,701.6 		"/>
		<polygon class="st65" points="1373.3,551.9 1381.2,763.1 1592.9,647.9 		"/>
		<polygon class="st36" points="961.4,406.1 1126,453.1 1134.2,311.3 		"/>
		<polygon class="st50" points="1683.8,53 1898.1,146.1 1797.1,-132.3 		"/>
		<polygon class="st39" points="1066,130.7 820.9,-126.8 1172,-155 		"/>
		<polygon class="st65" points="967.5,386.8 709.5,133.2 694.7,434.1 		"/>
		<polygon class="st6" points="771.1,16.7 496,-91.2 555.3,104.3 		"/>
		<polygon class="st42" points="403.6,455.1 113.7,415.3 258.4,771.3 		"/>
		<polygon class="st71" points="490.1,909.4 341.3,898 406.9,1029.6 		"/>
		<polygon class="st55" points="769.4,684.9 592.8,597.4 662.5,807.4 		"/>
		<polygon class="st30" points="970.7,917.6 711.5,879.7 710.6,1099.2 		"/>
		<polygon class="st12" points="446.5,226.5 257.5,117.2 290.2,322.8 		"/>
		<polygon class="st36" points="615.2,477.9 610.7,266.5 397.2,378.2 		"/>
		<polygon class="st7" points="1024.6,630.4 860.8,580.7 850.2,722.3 		"/>
		<polygon class="st32" points="418.5,675.5 221.6,971.6 116.5,635.3 		"/>
		<polygon class="st62" points="738.2,670.6 499.7,1022.7 796.5,970.6 		"/>
		<polygon class="st27" points="1024.5,842.3 978.2,1033.9 1167.7,919.5 		"/>
		<polygon class="st47" points="1207,594.5 1227.3,855.7 1441.7,808.1 		"/>
		<polygon class="st57" points="915,605.5 902.8,776.2 1043.2,755.3 		"/>
		<polygon class="st19" points="1630.8,904.1 1399.3,989.1 1608.6,1024.7 		"/>
		<polygon class="st71" points="909,734.1 650.4,490.2 999.5,443.1 		"/>
		<polygon class="st17" points="824.5,995.2 553.1,755.8 554.6,1057.1 		"/>
		<polygon class="st21" points="608.4,636.1 327.8,543.2 397.6,735.2 		"/>
		<polygon class="st51" points="309,307.9 200.8,463.9 94,158.8 		"/>
		<polygon class="st53" points="295.6,863.1 100.9,764.2 144.7,967.7 		"/>
		<polygon class="st18" points="477.6,1105.1 461.7,894.2 254.5,1017.3 		"/>
		<polygon class="st38" points="1346.8,714.8 1495.8,720.6 1425.5,591.5 		"/>
		<polygon class="st54" points="1076,949.6 1255.8,1030.4 1178.3,823.1 		"/>
		<polygon class="st18" points="866.2,724.5 1126.6,752.8 1119.4,533.3 		"/>
		<polygon class="st32" points="1677.3,383.3 1898.1,745 1976.1,319.4 		"/>
		<polygon class="st54" points="823,1013.6 988.6,1057.1 993.9,915.2 		"/>
		<polygon class="st38" points="1248.6,365.1 1289.4,608.3 1363,409.2 		"/>
		<polygon class="st39" points="1537.9,645.4 1754.1,734.1 1647.4,457.9 		"/>
		<polygon class="st17" points="908.5,-198.6 933.7,92.9 1249,-126.9 		"/>
		<polygon class="st22" points="439.3,101.4 390.1,329.9 575.4,322.9 		"/>
		<polygon class="st43" points="1719.2,-119.6 1404.4,164.1 1837.1,162.2 		"/>
		<polygon class="st63" points="1138.1,45.2 966.6,308.3 1246.2,232 		"/>
		<polygon class="st20" points="676,-189.9 611.3,18.6 804.5,-58.7 		"/>
		<polygon class="st36" points="403,94.3 253.9,90.9 326.4,218.8 		"/>
		<polygon class="st45" points="883.4,76.6 622.6,52.6 633.5,271.9 		"/>
		<polygon class="st55" points="507,442.3 462.2,199.7 391.9,400.1 		"/>
		<polygon class="st47" points="827.5,65.9 1082.1,314.1 732.2,355.4 		"/>
		<polygon class="st35" points="1126.4,168.9 1405.4,266.5 1338.8,73.3 		"/>
		<polygon class="st2" points="1685.6,233.6 1901.1,324.1 1928.5,140.6 		"/>
		<polygon class="st18" points="1420.4,502 1531.2,347.9 1632.9,654.7 		"/>
		<polygon class="st57" points="1443,-52.8 1636,49.3 1595.6,-154.9 		"/>
	</g>
	
		<rect x="276.4" y="-10.6" transform="matrix(-1 -1.224647e-16 1.224647e-16 -1 1983.2429 932.419)" class="st72" width="1430.3" height="953.6"/>
</g>
</svg>
